<svg width="38" height="38" viewBox="0 0 38 38" fill="none" xmlns="http://www.w3.org/2000/svg">
<path d="M11.5 0C5.159 0 0 5.159 0 11.5V26.5C0 32.841 5.159 38 11.5 38H26.5C32.841 38 38 32.841 38 26.5V11.5C38 5.159 32.841 0 26.5 0H11.5ZM29 7C30.105 7 31 7.895 31 9C31 10.104 30.105 11 29 11C27.895 11 27 10.104 27 9C27 7.895 27.895 7 29 7ZM19 9C24.514 9 29 13.486 29 19C29 24.514 24.514 29 19 29C13.486 29 9 24.514 9 19C9 13.486 13.486 9 19 9ZM19 12C18.0807 12 17.1705 12.1811 16.3212 12.5328C15.4719 12.8846 14.7003 13.4002 14.0503 14.0503C13.4002 14.7003 12.8846 15.4719 12.5328 16.3212C12.1811 17.1705 12 18.0807 12 19C12 19.9193 12.1811 20.8295 12.5328 21.6788C12.8846 22.5281 13.4002 23.2997 14.0503 23.9497C14.7003 24.5998 15.4719 25.1154 16.3212 25.4672C17.1705 25.8189 18.0807 26 19 26C19.9193 26 20.8295 25.8189 21.6788 25.4672C22.5281 25.1154 23.2997 24.5998 23.9497 23.9497C24.5998 23.2997 25.1154 22.5281 25.4672 21.6788C25.8189 20.8295 26 19.9193 26 19C26 18.0807 25.8189 17.1705 25.4672 16.3212C25.1154 15.4719 24.5998 14.7003 23.9497 14.0503C23.2997 13.4002 22.5281 12.8846 21.6788 12.5328C20.8295 12.1811 19.9193 12 19 12Z" fill="#FEFEFE"/>
</svg>
