<svg width="50" height="39" viewBox="0 0 50 39" fill="none" xmlns="http://www.w3.org/2000/svg">
<path d="M0 4.49384V3.18627C0 2.34122 0.32924 1.53078 0.915291 0.933238C1.50134 0.335696 2.2962 0 3.125 0L46.875 0C47.7038 0 48.4987 0.335696 49.0847 0.933238C49.6708 1.53078 50 2.34122 50 3.18627V4.49384L25 20.4252L0 4.49384ZM25.8281 23.6553C25.5797 23.8134 25.2928 23.8972 25 23.8972C24.7072 23.8972 24.4203 23.8134 24.1719 23.6553L0 8.25126V35.049C0 35.8941 0.32924 36.7045 0.915291 37.3021C1.50134 37.8996 2.2962 38.2353 3.125 38.2353H46.875C47.7038 38.2353 48.4987 37.8996 49.0847 37.3021C49.6708 36.7045 50 35.8941 50 35.049V8.25126L25.8281 23.6553Z" fill="#FEFEFE"/>
</svg>
