<svg width="45" height="38" viewBox="0 0 45 38" fill="none" xmlns="http://www.w3.org/2000/svg">
<path d="M22.5 0C15.255 0 5.85149 1.81145 5.85149 1.81145L5.82782 1.83844C2.52807 2.36506 0 5.19453 0 8.6356V18.9983V19.0017V29.361V29.3644C0.00322002 31.0078 0.593429 32.5963 1.66465 33.8445C2.73587 35.0928 4.21794 35.9191 5.84473 36.1751L5.85149 36.1852C5.85149 36.1852 15.255 38 22.5 38C29.745 38 39.1485 36.1852 39.1485 36.1852L39.1519 36.1818C40.7804 35.9264 42.2642 35.0994 43.3363 33.8497C44.4083 32.5999 44.9983 31.0095 45 29.3644V29.361V19.0017V18.9983V8.6356C44.9976 6.9916 44.4077 5.40235 43.3364 4.15339C42.2652 2.90443 40.7826 2.07764 39.1553 1.82157L39.1485 1.81145C39.1485 1.81145 29.745 0 22.5 0ZM17.3077 11.0509L31.1538 18.9983L17.3077 26.9458V11.0509Z" fill="#FEFEFE"/>
</svg>
